<svg width="46" height="46" viewBox="0 0 46 46" fill="none" xmlns="http://www.w3.org/2000/svg">
<path d="M13.5719 13.1998C8.37704 18.3947 8.37704 26.8611 13.5719 32.056C18.7668 37.2508 27.2332 37.2508 32.4281 32.056C37.623 26.8611 37.623 18.3947 32.4281 13.1998C27.2332 8.0049 18.7668 8.0049 13.5719 13.1998ZM27.4784 19.5637L24.4142 22.6279L27.4784 25.692C27.8649 26.0786 27.8649 26.7197 27.4784 27.1062C27.0918 27.4928 26.4507 27.4928 26.0641 27.1062L23 24.0421L19.9359 27.1062C19.5493 27.4928 18.9082 27.4928 18.5217 27.1062C18.1351 26.7197 18.1351 26.0785 18.5217 25.692L21.5858 22.6279L18.5217 19.5637C18.1351 19.1772 18.1351 18.5361 18.5217 18.1495C18.9082 17.763 19.5493 17.763 19.9359 18.1495L23 21.2137L26.0641 18.1495C26.4507 17.763 27.0918 17.763 27.4784 18.1495C27.8649 18.5361 27.8649 19.1772 27.4784 19.5637Z" fill="#4F4F4F"/>
</svg>
